<svg width="128" height="128" viewBox="0 0 128 128" fill="none" xmlns="http://www.w3.org/2000/svg">
<path d="M27 51C27 46.5817 30.5817 43 35 43H55V91H35C30.5817 91 27 87.4183 27 83V51Z" fill="#AEEC5F"/>
<path d="M37 48C37 47.4477 36.5523 47 36 47C35.4477 47 35 47.4477 35 48V80C35 80.5523 35.4477 81 36 81C36.5523 81 37 80.5523 37 80V48Z" fill="black"/>
<path d="M53 48C53 47.4477 52.5523 47 52 47C51.4477 47 51 47.4477 51 48V80C51 80.5523 51.4477 81 52 81C52.5523 81 53 80.5523 53 80V48Z" fill="black"/>
<path d="M68 47C68.5523 47 69 47.4477 69 48V80C69 80.5523 68.5523 81 68 81C67.4477 81 67 80.5523 67 80V48C67 47.4477 67.4477 47 68 47Z" fill="black"/>
<path d="M85 48C85 47.4477 84.5523 47 84 47C83.4477 47 83 47.4477 83 48V80C83 80.5523 83.4477 81 84 81C84.5523 81 85 80.5523 85 80V48Z" fill="black"/>
<path fill-rule="evenodd" clip-rule="evenodd" d="M88 38H32C26.4772 38 22 42.4772 22 48V80C22 85.5228 26.4772 90 32 90H88C93.5229 90 98 85.5228 98 80V78H104C106.209 78 108 76.2091 108 74V54C108 51.7909 106.209 50 104 50H98V48C98 42.4772 93.5229 38 88 38ZM98 52V76H104C105.105 76 106 75.1046 106 74V54C106 52.8954 105.105 52 104 52H98ZM96 48C96 43.5817 92.4183 40 88 40H32C27.5817 40 24 43.5817 24 48V80C24 84.4183 27.5817 88 32 88H88C92.4183 88 96 84.4183 96 80V48Z" fill="black"/>
</svg>
