<?xml version="1.0" encoding="utf-8"?>
<!-- Generator: Adobe Illustrator 21.0.0, SVG Export Plug-In . SVG Version: 6.00 Build 0)  -->
<svg version="1.1" id="Layer_1" xmlns="http://www.w3.org/2000/svg" xmlns:xlink="http://www.w3.org/1999/xlink" x="0px" y="0px"
	 viewBox="0 0 2000 2000" style="enable-background:new 0 0 2000 2000;" xml:space="preserve">
<path d="M1935.9,1121.6c-0.3-2.9-1.3-5.8-3.8-8.5c-52.5-55.3-112.8-104.2-173.5-150c-59.5-45-122.1-86.3-187.2-123.3
	c23.5-20,47-40.1,70.5-60.1c3.8-3.3,7.6-6.5,11.5-9.8c5.9-5.1,5.6-15.9,0-21c-6.3-5.8-14.7-5.4-21,0c-26.4,22.5-52.9,45.1-79.4,67.7
	c-3,2.6-6,5.2-9.1,7.7c-55-29.7-111.8-56-170.2-78.2c26-45.2,51.9-90.4,77.9-135.6c4-7,8.1-14,12.1-21c9.5-16.6-16.1-31.6-25.6-15
	c-28.1,48.9-56.2,97.9-84.3,146.8c-2.8,4.9-5.6,9.8-8.4,14.7c-8.6-3-17.2-6.4-25.9-9.2c-43.6-14.3-87.8-25.6-132.3-34
	c13.4-59.8,26.8-119.6,40.2-179.5c2-9.1,4.1-18.2,6.1-27.3c4.2-18.6-24.5-26.6-28.6-7.9c-14.3,63.9-28.7,127.9-43,191.8
	c-1.3,5.9-2.7,11.9-4,17.8c-39.3-6.3-78.9-10.4-118.5-12c-10.4-0.9-20.9-1.4-31.3-1.5c0-64.8,0-129.6,0-194.4c0-9.4,0-18.8,0-28.2
	c0-19.1-29.7-19.1-29.7,0c0,66.5,0,133.1,0,199.6c0,7.8,0,15.7,0,23.6c-2.5,0.1-4.9,0.4-7.4,0.6c-47.4,1.3-94.8,6.1-142,14.3
	c-13.8-61.4-27.5-122.7-41.3-184.1c-2-9.1-4.1-18.2-6.1-27.3c-4.2-18.6-32.8-10.8-28.6,7.9c14.3,63.9,28.7,127.9,43,191.8
	c1.3,5.8,2.6,11.5,3.9,17.3c-16.7,3.4-33.3,7.1-49.9,11.4c-37,9.6-73.4,21.4-109.3,34.5c-27.3-47.5-54.6-95-81.9-142.6
	c-4-7-8-14-12.1-21c-9.5-16.6-35.2-1.6-25.7,15c28.1,48.9,56.2,97.9,84.3,146.8c2.4,4.2,4.8,8.3,7.2,12.5
	c-56.8,22.3-112.1,48.3-165.5,77.8c-0.6-1.1-1.1-2.2-2.2-3.1c-26.5-22.5-52.9-45.1-79.4-67.7c-3.8-3.3-7.6-6.5-11.5-9.8
	c-5.9-5-15.3-6.2-21,0c-5.1,5.5-6.3,15.6,0,21c26.5,22.5,52.9,45.1,79.4,67.7c2.8,2.3,5.5,4.7,8.2,7c-46.6,26.8-92,55.8-135.6,86.7
	c-76.5,54-152.2,113.5-216.9,181.6c-5.6,5.9-5.7,15.1,0,21c53,54.5,113.8,102.6,174.9,147.6c133.1,98.1,280.6,179.4,438.4,229.9
	c93.9,30,190.2,46.8,286.9,50c21.9,1.7,44,1.8,66.1,0.2c71.8-2.3,143.7-12.3,214.6-30.2c167.8-42.4,325.2-122,467-220.4
	c76-52.7,151.4-110.6,216.1-177.1c2.9-3,4-6.3,4-9.6c0-0.2,0.1-0.4,0.1-0.6C1936.2,1123.1,1936.1,1122.4,1935.9,1121.6z
	 M296.5,1283.7c-68.9-48-136.9-100.7-196.7-160.3c47.5-48.3,100.5-92.1,154.3-132.9C384.4,891.6,529,808.4,684.7,756.8
	c33.8-11.2,67.9-20.6,102.2-28.3c-49.3,26.6-93.8,62.5-130.2,106.9c-118,144-134.6,352.2-38.2,512.2
	c41.8,69.5,101.5,124.6,170.5,161.6c-12.8-2.8-25.5-5.2-38.2-8.5C587.3,1458.1,434.6,1379.8,296.5,1283.7z M680.2,1383.5
	c-111.6-133.9-125.9-330-36.1-479.2c89.5-148.6,267.5-227.6,437.8-193.2c193.1,39,331.8,211.4,333.6,407.3
	c-1.7,173.7-110.9,333.1-275.8,391.4C976.3,1567.6,791,1516.4,680.2,1383.5z M1445.1,1118.5c-1.6-163-91.3-312.8-231.8-390.3
	c12.5,2.8,24.9,5.8,37.3,9.2c163.2,43.7,315.2,123.8,452.3,221.5c69.3,49.3,137.5,103.6,197.3,164.6
	c-48,47.7-101.5,90.7-155.7,130.7c-130.6,96.5-274.9,177.2-429.7,227.4c-33.6,10.9-67.6,19.5-101.7,26.9
	C1352,1431.5,1443.6,1282.1,1445.1,1118.5z M1065.2,1450.3c158.2-30.3,271-172.5,273-331.8c-1.8-140.1-87.7-266.7-219.3-316.6
	c-132.7-50.4-288.4-8.9-378.8,100.5c-90.7,109.8-103.5,269.2-29.3,391.3C783.9,1414,927,1476.8,1065.2,1450.3z M736.4,958.3
	c66.7-109.7,198.9-168.1,324.9-142.3c49.3,10.1,93.6,32,130.7,62c-26.1,0.9-51.8,12.5-68.6,32.9c-24.7,30.2-28.9,73.4-8.8,107.2
	c20.2,33.8,59.4,50.6,97.8,43.7c34.1-6.1,60.2-32,70.3-63.7c16,37.3,25.2,78,25.8,120.3c-1.6,129.1-82.1,247.3-205,290.7
	c-121.8,43.1-260.5,4.4-342.5-95.5C679.2,1213.7,669.4,1068.6,736.4,958.3z M1205.6,908.3c30.2,5.5,51.8,31.9,52.3,62.4
	c-0.4,26-16.3,50.4-41.2,59.3c-25.6,9.2-54.6,1.4-71.7-19.8c-16.4-20.4-18.1-49.7-4.7-72C1153.5,916,1180,903.7,1205.6,908.3z"/>
</svg>
